<svg xmlns="http://www.w3.org/2000/svg" xmlns:xlink="http://www.w3.org/1999/xlink" viewBox="0 0 200 200" width="370" height="370" preserveAspectRatio="xMidYMid meet" style="width: 100%; height: 100%; transform: translate3d(0px, 0px, 0px); content-visibility: visible; background-color: transparent;"><defs><clipPath id="__lottie_element_30"><rect width="200" height="200" x="0" y="0"/></clipPath></defs><g clip-path="url(#__lottie_element_30)"><g transform="matrix(8.149999618530273,0,0,8.149999618530273,-715.9968872070312,-720.0020751953125)" opacity="1" style="display: block;"><g opacity="1" transform="matrix(1,0,0,1,100.21299743652344,100.697998046875)"><g opacity="1" transform="matrix(1,0,0,1,0,0)"><path fill="rgb(0,0,0)" fill-opacity="1" d=" M9.022000312805176,9.03600025177002 C9.022000312805176,9.03600025177002 -9.022000312805176,9.03600025177002 -9.022000312805176,9.03600025177002 C-9.29800033569336,9.03600025177002 -9.522000312805176,8.812000274658203 -9.522000312805176,8.53600025177002 C-9.522000312805176,8.53600025177002 -9.522000312805176,-8.53600025177002 -9.522000312805176,-8.53600025177002 C-9.522000312805176,-8.670000076293945 -9.468999862670898,-8.79699993133545 -9.37399959564209,-8.890999794006348 C-9.279000282287598,-8.984999656677246 -9.133999824523926,-9.027000427246094 -9.017000198364258,-9.03600025177002 C-9.017000198364258,-9.03600025177002 5.4029998779296875,-8.878999710083008 5.4029998779296875,-8.878999710083008 C5.535999774932861,-8.878000259399414 5.663000106811523,-8.824000358581543 5.75600004196167,-8.729000091552734 C5.75600004196167,-8.729000091552734 9.380000114440918,-5.01800012588501 9.380000114440918,-5.01800012588501 C9.470999717712402,-4.925000190734863 9.522000312805176,-4.797999858856201 9.522000312805176,-4.668000221252441 C9.522000312805176,-4.668000221252441 9.522000312805176,8.53600025177002 9.522000312805176,8.53600025177002 C9.522000312805176,8.812000274658203 9.29800033569336,9.03600025177002 9.022000312805176,9.03600025177002z M-8.522000312805176,8.03600025177002 C-8.522000312805176,8.03600025177002 8.522000312805176,8.03600025177002 8.522000312805176,8.03600025177002 C8.522000312805176,8.03600025177002 8.522000312805176,-4.465000152587891 8.522000312805176,-4.465000152587891 C8.522000312805176,-4.465000152587891 5.184999942779541,-7.881999969482422 5.184999942779541,-7.881999969482422 C5.184999942779541,-7.881999969482422 -8.522000312805176,-8.029999732971191 -8.522000312805176,-8.029999732971191 C-8.522000312805176,-8.029999732971191 -8.522000312805176,8.03600025177002 -8.522000312805176,8.03600025177002z"/></g></g></g><g transform="matrix(8.149999618530273,0,0,8.149999618530273,-715.9968872070312,-720.0020751953125)" opacity="1" style="display: block;"><g opacity="1" transform="matrix(1,0,0,1,100.21299743652344,105.30500030517578)"><g opacity="1" transform="matrix(1,0,0,1,0,0)"><path fill="rgb(51,49,50)" fill-opacity="1" d=" M5.74399995803833,3.928999900817871 C5.74399995803833,3.928999900817871 4.74399995803833,3.928999900817871 4.74399995803833,3.928999900817871 C4.74399995803833,3.928999900817871 4.74399995803833,-2.259000062942505 4.74399995803833,-2.259000062942505 C4.74399995803833,-2.628999948501587 4.443999767303467,-2.928999900817871 4.073999881744385,-2.928999900817871 C4.073999881744385,-2.928999900817871 -4.073999881744385,-2.928999900817871 -4.073999881744385,-2.928999900817871 C-4.443999767303467,-2.928999900817871 -4.74399995803833,-2.628999948501587 -4.74399995803833,-2.259000062942505 C-4.74399995803833,-2.259000062942505 -4.74399995803833,3.928999900817871 -4.74399995803833,3.928999900817871 C-4.74399995803833,3.928999900817871 -5.74399995803833,3.928999900817871 -5.74399995803833,3.928999900817871 C-5.74399995803833,3.928999900817871 -5.74399995803833,-2.259000062942505 -5.74399995803833,-2.259000062942505 C-5.74399995803833,-3.180000066757202 -4.994999885559082,-3.928999900817871 -4.073999881744385,-3.928999900817871 C-4.073999881744385,-3.928999900817871 4.073999881744385,-3.928999900817871 4.073999881744385,-3.928999900817871 C4.994999885559082,-3.928999900817871 5.74399995803833,-3.180000066757202 5.74399995803833,-2.259000062942505 C5.74399995803833,-2.259000062942505 5.74399995803833,3.928999900817871 5.74399995803833,3.928999900817871z"/></g></g></g><g transform="matrix(8.149999618530273,0,0,8.149999618530273,-715.9968872070312,-720.0020751953125)" opacity="1" style="display: block;"><g opacity="1" transform="matrix(1,0,0,1,100.21299743652344,95.23799896240234)"><g opacity="1" transform="matrix(1,0,0,1,0,0)"><path fill="rgb(51,49,50)" fill-opacity="1" d=" M3.622999906539917,3.0209999084472656 C3.622999906539917,3.0209999084472656 -3.622999906539917,3.0209999084472656 -3.622999906539917,3.0209999084472656 C-3.8989999294281006,3.0209999084472656 -4.123000144958496,2.796999931335449 -4.123000144958496,2.5209999084472656 C-4.123000144958496,2.5209999084472656 -4.123000144958496,-3.0209999084472656 -4.123000144958496,-3.0209999084472656 C-4.123000144958496,-3.0209999084472656 -3.122999906539917,-3.0209999084472656 -3.122999906539917,-3.0209999084472656 C-3.122999906539917,-3.0209999084472656 -3.122999906539917,2.0209999084472656 -3.122999906539917,2.0209999084472656 C-3.122999906539917,2.0209999084472656 3.122999906539917,2.0209999084472656 3.122999906539917,2.0209999084472656 C3.122999906539917,2.0209999084472656 3.122999906539917,-2.943000078201294 3.122999906539917,-2.943000078201294 C3.122999906539917,-2.943000078201294 4.123000144958496,-2.943000078201294 4.123000144958496,-2.943000078201294 C4.123000144958496,-2.943000078201294 4.123000144958496,2.5209999084472656 4.123000144958496,2.5209999084472656 C4.123000144958496,2.796999931335449 3.8989999294281006,3.0209999084472656 3.622999906539917,3.0209999084472656z"/></g></g></g><g transform="matrix(8.149999618530273,0,0,8.149999618530273,-715.9968872070312,-720.0020751953125)" opacity="1" style="display: block;"><g opacity="1" transform="matrix(1,0,0,1,101.68900299072266,95.03800201416016)"><g opacity="1" transform="matrix(1,0,0,1,0,0)"><path fill="rgb(51,49,50)" fill-opacity="1" d=" M0.5,0.9850000143051147 C0.5,0.9850000143051147 -0.5,0.9850000143051147 -0.5,0.9850000143051147 C-0.5,0.9850000143051147 -0.5,-0.9850000143051147 -0.5,-0.9850000143051147 C-0.5,-0.9850000143051147 0.5,-0.9850000143051147 0.5,-0.9850000143051147 C0.5,-0.9850000143051147 0.5,0.9850000143051147 0.5,0.9850000143051147z"/></g></g></g></g></svg>